Results
version=1
nRows=12
nColumns=24
inDegrees=yes
endheader
time	pelvis_tilt	pelvis_list	pelvis_rotation	pelvis_tx	pelvis_ty	pelvis_tz	hip_flexion_r	hip_adduction_r	hip_rotation_r	knee_angle_r	ankle_angle_r	subtalar_angle_r	mtp_angle_r	hip_flexion_l	hip_adduction_l	hip_rotation_l	knee_angle_l	ankle_angle_l	subtalar_angle_l	mtp_angle_l	lumbar_extension	lumbar_bending	lumbar_rotation
      1.71200000	      0.11221594	     -0.29495055	     -2.54545327	      1.35955947	      1.02113189	      0.30925120	     23.36936396	     -2.82891070	     -7.68148887	    -64.68912621	     -0.20719731	     -4.85141391	     -7.31387792	      8.34177820	      1.76637546	     -6.35429834	    -12.36114942	     -0.43950809	    -11.27148477	      0.65844849	    -10.94181418	     -2.47422016	     -0.49813341
      1.71616667	      0.14586135	     -0.34716427	     -2.35958142	      1.36454206	      1.02180010	      0.30868502	     23.78409305	     -2.78819825	     -7.91786293	    -63.88502202	      0.21876931	     -4.59754885	     -7.25046300	      7.86242580	      1.77564811	     -6.26566608	    -12.07575390	     -0.34926532	    -11.15327649	      0.68162989	    -10.99578836	     -2.34494221	     -0.61047361
      1.72033333	      0.29410081	     -0.46639062	     -2.01964337	      1.36955666	      1.02270355	      0.30776115	     23.99259638	     -2.76330639	     -8.33955297	    -62.96495470	      0.63186414	     -4.47768822	     -7.14030102	      7.26783990	      1.74907324	     -5.96977225	    -11.79327346	     -0.29296060	    -11.08281921	      0.73071152	    -11.20526415	     -2.10915926	     -0.94247689
      1.72450000	      0.35204382	     -0.52179962	     -1.82424586	      1.37451406	      1.02334858	      0.30716899	     24.34153696	     -2.73248748	     -8.58660112	    -62.06285711	      1.03686893	     -4.25360776	     -7.07602485	      6.76614386	      1.75324085	     -5.83995969	    -11.51035772	     -0.20516251	    -10.99404277	      0.76576702	    -11.29555889	     -1.97536799	     -1.09052183
      1.72866667	      0.33527868	     -0.54879093	     -1.68512278	      1.37949072	      1.02380672	      0.30678225	     24.77402337	     -2.68505406	     -8.75935114	    -61.15178219	      1.47615934	     -4.21372840	     -7.05281961	      6.35616337	      1.76498383	     -5.79709450	    -11.24877374	     -0.17807328	    -10.92857865	      0.77975443	    -11.28808322	     -1.90298101	     -1.16720910
      1.73283333	      0.51180073	     -0.65617557	     -1.34925045	      1.38446109	      1.02464504	      0.30581995	     24.89853080	     -2.69087074	     -9.18032424	    -60.09787120	      1.80933682	     -4.08603762	     -6.98495238	      5.73599057	      1.74292410	     -5.47924878	    -10.96965930	     -0.06773886	    -10.86541826	      0.83918207	    -11.52752399	     -1.65325763	     -1.51742105
      1.73700000	      0.48222418	     -0.66128038	     -1.24533966	      1.38937237	      1.02498608	      0.30550956	     25.32493176	     -2.65382044	     -9.30202792	    -59.11380994	      2.21744255	     -4.01176481	     -6.96838503	      5.34461717	      1.76980537	     -5.44459950	    -10.71816699	     -0.02084986	    -10.82708157	      0.85364969	    -11.50620631	     -1.60744991	     -1.55709252
      1.74116667	      0.58872117	     -0.73813427	     -0.94502765	      1.39432358	      1.02560264	      0.30464615	     25.51046230	     -2.67183881	     -9.66804165	    -58.00505257	      2.54483007	     -3.92338481	     -6.92423155	      4.81731059	      1.76256121	     -5.15330303	    -10.47418490	      0.09610336	    -10.76929926	      0.91575352	    -11.65783114	     -1.40888217	     -1.81508513
      1.74533333	      0.58600710	     -0.76015471	     -0.80513214	      1.39924062	      1.02595064	      0.30421622	     25.84649925	     -2.64693537	     -9.83196261	    -56.90793516	      2.88799302	     -3.82559684	     -6.90461971	      4.40526951	      1.77665903	     -5.07092590	    -10.23442633	      0.18398152	    -10.72402604	      0.95644245	    -11.67390076	     -1.31860660	     -1.91710630
      1.74950000	      0.55018543	     -0.72181306	     -0.71118135	      1.40410886	      1.02613047	      0.30394370	     26.24179587	     -2.65149234	     -9.91884870	    -55.82980562	      3.25404327	     -3.87599659	     -6.89792106	      4.03535013	      1.84467925	     -5.02551017	    -10.01334494	      0.25742546	    -10.69105869	      0.97302426	    -11.65338666	     -1.32397816	     -1.96557790
      1.75366667	      0.58508287	     -0.76005551	     -0.50435975	      1.40902645	      1.02648949	      0.30334973	     26.47706497	     -2.65394048	    -10.16141728	    -54.62677110	      3.52390225	     -3.81952284	     -6.89166539	      3.59574457	      1.84753010	     -4.86919313	     -9.79540858	      0.39496377	    -10.59621638	      1.01952376	    -11.70868917	     -1.18694823	     -2.12070726
      1.75783333	      0.53690070	     -0.70580220	     -0.42004150	      1.41386300	      1.02658476	      0.30311413	     26.84719319	     -2.66652984	    -10.21776994	    -53.46584379	      3.86919770	     -3.88975119	     -6.89104339	      3.24233219	      1.92898963	     -4.81420317	     -9.57473895	      0.46422404	    -10.58535587	      1.03728841	    -11.68510904	     -1.21544587	     -2.18003292
